# xmcd
#
# Track frame offsets: 
#        150
#        13184
#        28723
#        40414
#        51541
#        66786
#        78963
#        92244
#        105380
#        122192
#        136935
#        150512
#        165243
#        176976
#        188955
#        204245
#        214960
#        225912
#        239458
#        254379
#        267344
#        280713
#        293953
#        304707
#        318036
#        328360
#        339173
#        349970
#        361064
#
# Disc length: 4951 seconds
#
# Revision: 0
# Processed by: cddbd v1.5.2PL0 Copyright (c) Steve Scherf et al.
# Submitted via: ExactAudioCopy v0.99pb4
#
DISCID=a913551d
DTITLE=The Dixon Brothers - A Blessing To People - Disc 3
DYEAR=2012
DGENRE=Country
TTITLE0=Hobo Jack The Rambler
TTITLE1=More Pretty Girls Than One - Part 3
TTITLE2=There's A Place In My Home For Mother
TTITLE3=Bootlegger's Story
TTITLE4=Wonder Who's Kissing Her - Part 2
TTITLE5=Prisoner's Plea
TTITLE6=Faithless Husband
TTITLE7=Down With The Old Canoe
TTITLE8=I Didn't Hear Anybody Pray
TTITLE9=Glorious Light Is Dawning
TTITLE10=Have Courage To Say No
TTITLE11=A Mother, A Father, A Baby
TTITLE12=A Church At The Foot Of The Hill
TTITLE13=By Himself
TTITLE14=Tempted And Tried
TTITLE15=Time For Me To Go
TTITLE16=Beyond Black Smoke
TTITLE17=When Gabriel Blows His Trumpet For Me
TTITLE18=Speak Evil Of No Man
TTITLE19=Jimmie And Sallie
TTITLE20=The Story Of George Collins
TTITLE21=The Light Of Homer Rogers
TTITLE22=After The Ball
TTITLE23='Twas Only A Dream
TTITLE24=Answer To Broken Engagement
TTITLE25=By The Old Oaken Bucket, Louise
TTITLE26=Honey Baby Mine
TTITLE27=My Trundle Bed
TTITLE28=New Trouble
EXTD=
EXTT0=
EXTT1=
EXTT2=
EXTT3=
EXTT4=
EXTT5=
EXTT6=
EXTT7=
EXTT8=
EXTT9=
EXTT10=
EXTT11=
EXTT12=
EXTT13=
EXTT14=
EXTT15=
EXTT16=
EXTT17=
EXTT18=
EXTT19=
EXTT20=
EXTT21=
EXTT22=
EXTT23=
EXTT24=
EXTT25=
EXTT26=
EXTT27=
EXTT28=
PLAYORDER=
